<!-- Copyright (c) 2023 Ramen Networks. All rights reserved. Ramen Networks and
licensors retain all intellectual property and proprietary rights in and to this
material, related documentation and any modifications thereto. Any use,
reproduction, disclosure or distribution of this material and related
documentation without a license agreement from Ramen Networks or licensors is
strictly proprietary and prohibited  -->
<svg width="534" height="321" viewBox="0 0 534 321" fill="none" xmlns="http://www.w3.org/2000/svg">
<path d="M196.43 317.12C217.174 317.12 233.99 300.304 233.99 279.56C233.99 258.816 217.174 242 196.43 242C175.686 242 158.87 258.816 158.87 279.56C158.87 300.304 175.686 317.12 196.43 317.12Z" fill="#AFAFAF"/>
<path d="M98.8 319.56C89.8 319.56 81.72 313.31 79.74 304.16C71.19 264.72 82.04 223.15 108.77 192.97C134.62 163.79 171.79 148.24 210.77 150.38C221.54 150.97 229.79 160.17 229.21 170.94C228.63 181.71 219.44 189.99 208.65 189.38C181.63 187.93 155.9 198.67 137.99 218.88C119.48 239.78 111.96 268.57 117.89 295.9C120.17 306.44 113.49 316.84 102.94 319.12C101.55 319.42 100.16 319.57 98.78 319.57H98.8V319.56Z" fill="#AFAFAF"/>
<path d="M336.22 317.12C357.113 317.12 374.05 300.183 374.05 279.29C374.05 258.397 357.113 241.46 336.22 241.46C315.327 241.46 298.39 258.397 298.39 279.29C298.39 300.183 315.327 317.12 336.22 317.12Z" fill="#AFAFAF"/>
<path d="M434.09 319.56C432.72 319.56 431.33 319.42 429.93 319.11C419.39 316.83 412.7 306.43 414.98 295.89C420.9 268.56 413.39 239.77 394.88 218.87C376.98 198.66 351.26 187.96 324.22 189.37C313.44 189.99 304.25 181.7 303.66 170.93C303.07 160.16 311.33 150.96 322.1 150.37C361.07 148.22 398.25 163.78 424.1 192.96C450.83 223.13 461.68 264.7 453.14 304.15C451.16 313.3 443.06 319.55 434.08 319.55L434.09 319.56Z" fill="#AFAFAF"/>
<path d="M510.21 320.54C508.87 320.54 507.52 320.4 506.17 320.11C495.61 317.88 488.86 307.54 491.09 296.98C501.75 246.34 487.48 192.8 452.91 153.78C420.05 116.69 372.99 96.3099 323.85 98.0899C313.16 98.4499 304.03 90.0299 303.66 79.2499C303.29 68.4699 311.73 59.4299 322.5 59.0599C383.32 56.9999 441.54 82.0399 482.15 127.88C524.88 176.12 542.52 242.34 529.31 305.03C527.37 314.22 519.26 320.54 510.22 320.54H510.21Z" fill="#00C7C7"/>
<path d="M266.28 225.68C255.49 225.68 246.75 216.94 246.75 206.15V19.53C246.75 8.74 255.49 0 266.28 0C277.07 0 285.81 8.74 285.81 19.53V206.14C285.81 216.93 277.07 225.67 266.28 225.67V225.68Z" fill="#00C7C7"/>
<path d="M31.39 111.21C33.23 109.14 35.15 107.16 37.05 105.16V19.53C37.05 9.43 28.87 1.25 18.78 1.25C8.68999 1.25 0.509995 9.43 0.509995 19.53V155.81C8.93999 139.91 19.25 124.91 31.39 111.21V111.21Z" fill="#1CB0F0"/>
<path d="M22.13 319.28C13.67 319.28 6.08 313.37 4.27 304.77C-8.85 242.47 8.66999 176.65 51.14 128.72C91.5 83.1601 149.33 58.2701 209.8 60.3301C219.88 60.6801 227.78 69.1401 227.43 79.2201C227.08 89.3001 218.57 97.1901 208.54 96.8501C159.04 95.1101 111.6 115.59 78.49 152.95C43.65 192.27 29.28 246.21 40.03 297.24C42.11 307.12 35.79 316.8 25.92 318.89C24.65 319.16 23.38 319.29 22.13 319.29V319.28Z" fill="#1CB0F0"/>
</svg>
